HIERARCHY
ROOT root
{
	OFFSET 0.000000 0.000000 0.000000
	CHANNELS 6 Xposition Yposition Zposition Zrotation Yrotation Xrotation
	JOINT lhip
	{
		OFFSET 0.058581 -0.082280 -0.017664
		CHANNELS 3 Zrotation Yrotation Xrotation
		JOINT lknee
		{
			OFFSET 0.043451 -0.386469 0.008037
			CHANNELS 3 Zrotation Yrotation Xrotation
			JOINT lankle
			{
				OFFSET -0.014790 -0.426874 -0.037428
				CHANNELS 3 Zrotation Yrotation Xrotation
				JOINT ltoe
				{
					OFFSET 0.041054 -0.060286 0.122042
					CHANNELS 3 Zrotation Yrotation Xrotation
					End Site
					{
						OFFSET 0.000000 0.000000 0.000000
					}
				}
			}
		}
	}
	JOINT rhip
	{
		OFFSET -0.060310 -0.090513 -0.013543
		CHANNELS 3 Zrotation Yrotation Xrotation
		JOINT rknee
		{
			OFFSET -0.043257 -0.383688 -0.004843
			CHANNELS 3 Zrotation Yrotation Xrotation
			JOINT rankle
			{
				OFFSET 0.019056 -0.420046 -0.034562
				CHANNELS 3 Zrotation Yrotation Xrotation
				JOINT rtoe
				{
					OFFSET -0.034840 -0.062106 0.130323
					CHANNELS 3 Zrotation Yrotation Xrotation
					End Site
					{
						OFFSET 0.000000 0.000000 0.000000
					}
				}
			}
		}
	}
	JOINT lowerback
	{
		OFFSET 0.004439 0.124404 -0.038385
		CHANNELS 3 Zrotation Yrotation Xrotation
		JOINT upperback
		{
			OFFSET 0.004488 0.137956 0.026820
			CHANNELS 3 Zrotation Yrotation Xrotation
			JOINT chest
			{
				OFFSET -0.002265 0.056032 0.002855
				CHANNELS 3 Zrotation Yrotation Xrotation
				JOINT lowerneck
				{
					OFFSET -0.013390 0.211636 -0.033468
					CHANNELS 3 Zrotation Yrotation Xrotation
					JOINT upperneck
					{
						OFFSET 0.010113 0.088937 0.050410
						CHANNELS 3 Zrotation Yrotation Xrotation
						End Site
						{
							OFFSET 0.000000 0.000000 0.000000
						}
					}
				}
				JOINT lclavicle
				{
					OFFSET 0.071702 0.114000 -0.018898
					CHANNELS 3 Zrotation Yrotation Xrotation
					JOINT lshoulder
					{
						OFFSET 0.122921 0.045205 -0.019046
						CHANNELS 3 Zrotation Yrotation Xrotation
						JOINT lelbow
						{
							OFFSET 0.255332 -0.015649 -0.022946
							CHANNELS 3 Zrotation Yrotation Xrotation
							JOINT lwrist
							{
								OFFSET 0.265709 0.012698 -0.007375
								CHANNELS 3 Zrotation Yrotation Xrotation
								End Site
								{
									OFFSET 0.000000 0.000000 0.000000
								}
							}
						}
					}
				}
				JOINT rclavicle
				{
					OFFSET -0.082954 0.112472 -0.023707
					CHANNELS 3 Zrotation Yrotation Xrotation
					JOINT rshoulder
					{
						OFFSET -0.113228 0.046853 -0.008472
						CHANNELS 3 Zrotation Yrotation Xrotation
						JOINT relbow
						{
							OFFSET -0.260127 -0.014369 -0.031269
							CHANNELS 3 Zrotation Yrotation Xrotation
							JOINT rwrist
							{
								OFFSET -0.269108 0.006794 -0.006027
								CHANNELS 3 Zrotation Yrotation Xrotation
								End Site
								{
									OFFSET 0.000000 0.000000 0.000000
								}
							}
						}
					}
				}
			}
		}
	}
}
MOTION
Frames: 11
Frame Time: 0.033333
0.090018 0.200418 0.997771 94.992946 1.027181 89.387689 6.399520 6.080896 6.612661 1.975089 -3.186106 -2.292449 -7.231076 -2.614617 -5.788415 0.000000 -0.000000 0.000000 -1.259792 -7.405661 7.506352 -2.256496 -2.861407 -2.048365 6.078579 1.456242 -5.871669 0.000000 -0.000000 0.000000 0.936440 -0.523484 -3.679157 1.917647 -2.068574 -7.872426 1.176456 -1.095685 -0.755250 0.910685 -9.982715 9.973612 -0.794927 -3.189762 10.435169 -18.256352 25.607006 -2.866285 -62.697938 -10.445055 -6.062594 70.579086 -42.469044 -89.283253 12.521428 -2.217115 -51.385557 15.426524 -15.118423 -11.097642 46.409999 26.663742 -4.159649 -89.151307 29.942517 -102.461512 -22.395595 6.371894 -32.275173 
0.092149 0.199287 0.996414 95.709472 0.680182 88.892132 6.183841 5.842280 7.107474 1.810457 -3.895865 -2.408502 -7.033012 -2.251136 -5.540276 0.000000 -0.000000 0.000000 -1.635577 -7.640255 8.435489 -2.231783 -2.668690 -2.396837 6.150845 0.691502 -5.951961 0.000000 -0.000000 0.000000 0.977612 -0.289967 -3.887929 1.362818 -1.996662 -8.034687 0.830244 -0.590798 -0.101198 -0.965375 -10.201343 10.875430 -0.336687 -3.404231 9.533360 -16.540605 25.633553 -3.149749 -61.996233 -12.222416 -6.669974 66.218959 -44.466892 -85.882890 11.172336 -3.624393 -52.450119 13.118960 -16.417788 -10.061145 47.038151 22.019176 -2.625640 -93.693180 34.550288 -102.865655 -18.090797 8.446728 -34.104115 
0.092549 0.198283 0.995953 96.561461 0.470172 88.560785 6.107879 5.064924 7.238476 1.637155 -4.794018 -2.285759 -6.746797 -1.655808 -5.409775 0.000000 -0.000000 0.000000 -1.815600 -7.752107 8.989385 -2.038473 -2.272914 -2.502756 5.813319 -0.538516 -6.251860 0.000000 -0.000000 0.000000 0.749064 0.207061 -4.309750 1.137120 -2.481636 -7.221603 0.704252 -0.373379 -0.273363 -2.676479 -10.091632 12.203846 0.326006 -2.928865 8.785279 -16.076325 21.584969 -3.047060 -58.126566 -13.522116 -8.039683 63.043649 -41.351748 -85.877018 12.267905 -2.093099 -51.321285 12.143658 -14.142079 -8.547461 45.541413 18.538765 -2.943680 -98.517115 33.414371 -105.086726 -17.508525 8.949901 -32.757730 
0.092464 0.198270 0.995349 96.902412 0.556429 88.291539 6.317578 4.894386 7.588739 1.702240 -5.018985 -2.587019 -7.071225 -1.579086 -5.113652 0.000000 -0.000000 0.000000 -1.557075 -7.606813 9.364627 -2.116005 -2.227571 -2.607621 5.655126 -1.020241 -6.311984 0.000000 -0.000000 0.000000 0.379115 0.359637 -4.498690 1.183731 -2.930311 -6.498311 0.802326 -0.302498 -0.755143 -2.944551 -9.700591 13.227583 0.824065 -2.792553 9.044855 -15.830713 17.916482 -3.167380 -54.563451 -13.822235 -8.545241 63.103276 -37.423812 -88.465219 13.637024 -1.176280 -50.644772 11.779712 -11.647538 -8.214510 44.155405 17.761306 -3.676885 -99.115834 30.158099 -106.266475 -19.165450 8.544407 -31.863610 
0.091657 0.197527 0.995478 96.924888 0.697392 88.365635 6.575255 5.120478 7.552121 1.696128 -4.715157 -2.730575 -7.304116 -1.966571 -5.143450 0.000000 -0.000000 0.000000 -1.251054 -7.510763 9.191219 -2.233595 -2.573165 -2.484827 5.928858 -0.733863 -6.125591 0.000000 -0.000000 0.000000 -0.167840 0.338139 -4.539835 1.566255 -3.096421 -6.839738 0.689530 -0.390370 -0.637262 -1.554771 -8.825983 13.462587 0.459177 -3.772513 10.010139 -14.693209 18.500526 -3.357021 -53.609550 -14.832202 -8.579911 63.863718 -38.430165 -86.571200 12.335952 -2.994234 -50.760098 12.237028 -12.479013 -9.889315 44.179110 20.739125 -4.511337 -97.214463 28.890223 -104.691885 -18.574387 8.756537 -32.401076 
0.089940 0.196843 0.995994 96.677158 0.812628 88.659263 6.586622 5.243832 7.059840 1.777840 -4.295161 -2.502511 -7.083481 -2.003484 -5.343272 0.000000 -0.000000 0.000000 -1.108625 -7.496952 8.767007 -2.213462 -2.692117 -2.557723 6.219382 -0.305260 -5.733815 0.000000 -0.000000 0.000000 -0.520017 0.423565 -4.613986 1.925527 -3.034880 -7.376522 0.596474 -0.389433 -0.242293 -0.597428 -8.321008 13.411146 0.146822 -4.613933 10.463941 -13.980521 19.676244 -3.715114 -53.534039 -15.528399 -8.189117 64.935528 -41.019571 -84.504876 11.487876 -3.978876 -49.891913 12.804760 -13.397984 -11.073358 44.603437 23.348919 -5.102639 -96.197970 27.732399 -103.006263 -18.460516 9.155612 -31.014303 
0.088193 0.196687 0.996369 96.093790 0.909629 88.725147 6.525426 5.320787 6.882202 1.905940 -4.106626 -2.304509 -7.040049 -1.933082 -5.367544 0.000000 -0.000000 0.000000 -1.081503 -7.519415 8.581622 -2.171996 -2.365150 -2.791648 6.213448 -0.011854 -5.471409 0.000000 -0.000000 0.000000 -0.521869 0.570783 -4.506441 2.100218 -2.928640 -7.183003 0.738463 -0.195752 -0.186684 -0.772002 -8.079087 13.275681 0.048074 -4.648580 10.287740 -13.878774 19.455362 -3.704317 -53.539254 -15.369159 -8.251296 65.594038 -41.485135 -84.706605 11.462679 -4.004431 -49.895620 12.970348 -12.759067 -11.011692 44.722071 23.858507 -5.419298 -97.031449 26.397364 -103.359071 -18.764448 9.225249 -30.394683 
0.085682 0.196984 0.996604 95.273315 0.939346 88.705145 6.414368 5.385507 6.853631 1.939191 -3.740221 -2.238044 -6.990538 -1.721281 -5.352598 0.000000 -0.000000 0.000000 -1.127189 -7.399551 8.224471 -2.225417 -2.108933 -2.629776 5.954645 0.141511 -5.556231 0.000000 -0.000000 0.000000 -0.300450 0.713048 -4.252243 2.093069 -2.775916 -6.523064 0.898608 0.011352 -0.403058 -1.206058 -8.095997 13.020039 0.091099 -4.301759 9.800777 -14.048769 18.584155 -3.547727 -54.104937 -15.312413 -8.491891 65.792467 -39.800883 -85.727336 11.602022 -3.394634 -49.836683 13.029650 -11.912818 -10.491930 44.918347 23.405331 -5.375576 -98.265774 26.398121 -103.984587 -18.180540 9.568815 -29.832216 
0.083584 0.197450 0.996764 94.784262 1.036260 88.629563 6.424792 5.283894 6.961029 1.916441 -3.545938 -2.349119 -7.014735 -1.439672 -5.310543 0.000000 -0.000000 0.000000 -1.085745 -7.180684 8.243571 -2.216069 -1.998607 -3.059786 6.235835 0.523050 -5.259906 0.000000 -0.000000 0.000000 -0.099222 0.729123 -3.945639 2.163672 -2.774869 -5.975142 1.037053 0.129665 -0.333256 -1.383681 -7.827224 12.496243 0.169977 -4.201300 9.389226 -14.323450 18.369318 -3.740846 -54.871002 -14.941357 -8.249268 64.822016 -39.109478 -84.989668 12.000852 -2.867251 -49.916673 13.078027 -11.704713 -10.177488 45.298825 22.595326 -4.600113 -99.063280 27.643308 -104.012943 -18.027268 9.278805 -30.164796 
0.080528 0.198300 0.997003 94.442406 1.095401 88.698812 6.318562 5.108765 6.771963 1.914451 -3.137233 -2.380674 -6.806805 -1.284226 -5.114794 0.000000 -0.000000 0.000000 -1.115614 -7.016516 7.886571 -2.147165 -1.934150 -2.923508 6.092759 0.462249 -4.929176 0.000000 -0.000000 0.000000 0.193238 0.691416 -3.374518 2.072411 -2.643654 -5.822583 1.083271 0.190183 -0.407645 -1.484667 -8.239086 12.304921 0.424730 -3.909835 9.075405 -14.779765 18.518980 -3.577325 -55.778602 -14.751387 -8.119221 64.117075 -39.740754 -84.305867 11.821576 -2.888634 -50.049898 13.032267 -11.656438 -9.464707 45.958988 21.580795 -3.901016 -99.670275 28.799349 -103.711808 -17.913969 9.488447 -29.574967 
0.077652 0.199225 0.997353 94.464916 1.155915 88.803484 6.242694 4.810480 6.565583 1.930415 -2.866086 -2.566993 -6.701531 -1.266580 -4.921243 0.000000 -0.000000 0.000000 -1.056588 -6.834970 7.677545 -2.152052 -1.907897 -3.138608 6.089318 0.265865 -4.569110 0.000000 -0.000000 0.000000 0.293595 0.683459 -3.034756 2.052374 -2.662572 -5.469315 1.138596 0.110100 -0.315236 -1.541956 -8.499279 12.035051 0.771764 -3.803103 8.634712 -15.274836 18.529087 -3.345311 -56.796650 -14.669567 -7.747524 63.679052 -40.411344 -83.206314 11.182458 -3.175737 -49.906801 13.085277 -11.806408 -8.944292 46.868618 20.571108 -3.310315 -99.778591 29.827880 -102.813010 -17.182726 9.408382 -28.852179 
